<?xml version="1.0" encoding="utf-8"?>
<!-- Generator: Adobe Illustrator 24.3.0, SVG Export Plug-In . SVG Version: 6.00 Build 0)  -->
<svg version="1.1" id="Layer_1" xmlns="http://www.w3.org/2000/svg" xmlns:xlink="http://www.w3.org/1999/xlink" x="0px" y="0px"
	 viewBox="0 0 439.2 259.2" style="enable-background:new 0 0 439.2 259.2;" xml:space="preserve">
<style type="text/css">
	.st0{fill:none;stroke:#808080;stroke-width:0.709;stroke-miterlimit:10;}
	.st1{fill:none;stroke:#808080;stroke-width:0.709;stroke-linecap:round;stroke-linejoin:round;stroke-miterlimit:10;}
</style>
<path class="st0" d="M35.8,41.8l-0.2-0.6l-0.3-0.5L35,40.2l-0.3-0.5l-0.4-0.4l-0.5-0.4l-0.4-0.3l-0.5-0.3L32.3,38l-0.5-0.2l-0.6-0.1
	l-0.6-0.1H30l-0.5,0.1l-0.6,0.1l-0.6,0.1l-0.5,0.2l-0.6,0.3l-0.4,0.3l-0.5,0.4l-0.4,0.4l-0.4,0.4l-0.3,0.5l-0.3,0.5l-0.2,0.6
	L24.5,42l-0.1,0.6l-0.1,0.6v0.6l0.1,0.6l0.1,0.5l0.1,0.6l0.3,0.5l0.2,0.5l0.4,0.5l0.4,0.5l0.4,0.4l0.4,0.4l0.5,0.3l0.5,0.2l0.6,0.3
	l0.5,0.1l0.6,0.1l0.6,0.1h0.6l0.6-0.1l0.5-0.1l0.6-0.2l0.5-0.3l0.5-0.3l0.5-0.3l0.5-0.4l0.4-0.4l0.3-0.5l0.3-0.5l0.3-0.5l0.2-0.6
	l0.1-0.5l0.1-0.6v-0.6v-0.6l-0.1-0.6L35.8,41.8 M35.8,99.4l-0.2-0.6l-0.3-0.5L35,97.8l-0.3-0.5l-0.4-0.4l-0.5-0.4l-0.4-0.3l-0.5-0.3
	l-0.6-0.3l-0.5-0.2l-0.6-0.1l-0.6-0.1H30l-0.5,0.1l-0.6,0.1l-0.6,0.1l-0.5,0.2L27.2,96l-0.4,0.3l-0.5,0.4l-0.4,0.4l-0.4,0.4L25.2,98
	l-0.3,0.5l-0.2,0.6l-0.2,0.5l-0.1,0.6l-0.1,0.6v0.6l0.1,0.6l0.1,0.5l0.1,0.6l0.3,0.5l0.2,0.5l0.4,0.5l0.4,0.5l0.4,0.4l0.4,0.4
	l0.5,0.3l0.5,0.2l0.6,0.3l0.5,0.1l0.6,0.1L30,107h0.6l0.6-0.1l0.5-0.1l0.6-0.2l0.5-0.3l0.5-0.3l0.5-0.3l0.5-0.4l0.4-0.4l0.3-0.5
	l0.3-0.5l0.3-0.5l0.2-0.6l0.1-0.5l0.1-0.6v-0.6v-0.6l-0.1-0.6L35.8,99.4 M35.8,157l-0.2-0.6l-0.3-0.5l-0.3-0.5l-0.3-0.5l-0.4-0.4
	l-0.5-0.4l-0.4-0.3l-0.5-0.3l-0.6-0.3l-0.5-0.2l-0.6-0.1l-0.6-0.1H30l-0.5,0.1l-0.6,0.1l-0.6,0.1l-0.5,0.2l-0.6,0.3l-0.4,0.3
	l-0.5,0.4l-0.4,0.4l-0.4,0.4l-0.3,0.5l-0.3,0.5l-0.2,0.6l-0.2,0.5l-0.1,0.6l-0.1,0.6v0.6l0.1,0.6l0.1,0.5l0.1,0.6l0.3,0.5l0.2,0.5
	l0.4,0.5l0.4,0.5l0.4,0.4l0.4,0.4l0.5,0.3l0.5,0.2l0.6,0.3l0.5,0.1l0.6,0.1l0.6,0.1h0.6l0.6-0.1l0.5-0.1l0.6-0.2l0.5-0.3l0.5-0.3
	l0.5-0.3l0.5-0.4l0.4-0.4L35,162l0.3-0.5l0.3-0.5l0.2-0.6l0.1-0.5l0.1-0.6v-0.6v-0.6l-0.1-0.6L35.8,157 M35.8,214.6l-0.2-0.6
	l-0.3-0.5L35,213l-0.3-0.5l-0.4-0.4l-0.5-0.4l-0.4-0.3l-0.5-0.3l-0.6-0.3l-0.5-0.2l-0.6-0.1l-0.6-0.1H30l-0.5,0.1l-0.6,0.1l-0.6,0.1
	l-0.5,0.2l-0.6,0.3l-0.4,0.3l-0.5,0.4l-0.4,0.4l-0.4,0.4l-0.3,0.5l-0.3,0.5l-0.2,0.6l-0.2,0.5l-0.1,0.6l-0.1,0.6v0.6l0.1,0.6
	l0.1,0.5l0.1,0.6l0.3,0.5l0.2,0.5l0.4,0.5l0.4,0.5l0.4,0.4l0.4,0.4l0.5,0.3l0.5,0.2l0.6,0.3l0.5,0.1l0.6,0.1l0.6,0.1h0.6l0.6-0.1
	l0.5-0.1l0.6-0.2l0.5-0.3l0.5-0.3l0.5-0.3l0.5-0.4l0.4-0.4l0.3-0.5l0.3-0.5l0.3-0.5l0.2-0.6l0.1-0.5l0.1-0.6v-0.6v-0.6l-0.1-0.6
	L35.8,214.6 M187,40l-0.2-0.6l-0.3-0.5l-0.3-0.5l-0.3-0.5l-0.4-0.4l-0.5-0.4l-0.4-0.3l-0.5-0.3l-0.6-0.3L183,36l-0.6-0.1l-0.6-0.1
	h-0.6l-0.5,0.1l-0.6,0.1l-0.6,0.1l-0.5,0.2l-0.6,0.3l-0.4,0.3l-0.5,0.4l-0.4,0.4l-0.4,0.4l-0.3,0.5l-0.3,0.5l-0.2,0.6l-0.2,0.5
	l-0.1,0.6l-0.1,0.6V42l0.1,0.6l0.1,0.5l0.1,0.6l0.3,0.5l0.2,0.5l0.4,0.5l0.4,0.5l0.4,0.4l0.4,0.4l0.5,0.3l0.5,0.2l0.6,0.3l0.5,0.1
	l0.6,0.1l0.6,0.1h0.6l0.6-0.1l0.5-0.1l0.6-0.2l0.5-0.3l0.5-0.3l0.5-0.3l0.5-0.4l0.4-0.4l0.3-0.5l0.3-0.5l0.3-0.5l0.2-0.6l0.1-0.5
	l0.1-0.6v-0.6v-0.6l-0.1-0.6L187,40 M69.2,84.7L69,84.1l-0.2-0.6l-0.4-0.6l-0.3-0.5l-0.4-0.5l-0.5-0.4l-0.5-0.4l-0.5-0.4l-0.6-0.3
	l-0.5-0.2L64.4,80l-0.6-0.2l-0.6-0.1h-0.6h-0.7l-0.6,0.1L60.7,80l-0.6,0.2l-0.6,0.2l-0.6,0.3l-0.5,0.4l-0.5,0.4l-0.4,0.4L57,82.4
	l-0.3,0.5l-0.3,0.6l-0.3,0.6l-0.2,0.6l-0.2,0.6l-0.1,0.6v0.6v0.7l0.1,0.6l0.1,0.6L56,89l0.2,0.6l0.3,0.6l0.4,0.5l0.4,0.5l0.4,0.5
	l0.5,0.4l0.5,0.4l0.5,0.3l0.6,0.3l0.6,0.2l0.6,0.2l0.6,0.1l0.7,0.1h0.6l0.6-0.1l0.7-0.1l0.6-0.2l0.6-0.2l0.5-0.3l0.6-0.3l0.5-0.4
	l0.5-0.4l0.4-0.5l0.4-0.5l0.3-0.5l0.3-0.6l0.3-0.6l0.1-0.6l0.2-0.6v-0.6l0.1-0.7l-0.1-0.6l-0.1-0.6L69.2,84.7 M136.9,84.7l-0.2-0.6
	l-0.3-0.6l-0.3-0.6l-0.3-0.5l-0.4-0.5l-0.5-0.4l-0.5-0.4l-0.5-0.4l-0.6-0.3l-0.6-0.2l-0.6-0.2l-0.6-0.2l-0.6-0.1h-0.7h-0.6l-0.6,0.1
	l-0.6,0.2l-0.6,0.2l-0.6,0.2l-0.6,0.3l-0.5,0.4l-0.5,0.4l-0.5,0.4l-0.4,0.5l-0.3,0.5l-0.4,0.6l-0.2,0.6l-0.2,0.6l-0.2,0.6l-0.1,0.6
	v0.6v0.7l0.1,0.6l0.1,0.6l0.2,0.6l0.2,0.6l0.3,0.6l0.3,0.5l0.4,0.5l0.5,0.5l0.4,0.4l0.6,0.4l0.5,0.3l0.6,0.3l0.6,0.2l0.6,0.2
	l0.6,0.1l0.6,0.1h0.7l0.6-0.1l0.6-0.1l0.6-0.2l0.6-0.2l0.6-0.3l0.6-0.3l0.5-0.4l0.4-0.4l0.5-0.5l0.4-0.5l0.3-0.5l0.3-0.6l0.2-0.6
	l0.2-0.6l0.1-0.6l0.1-0.6v-0.7v-0.6l-0.1-0.6L136.9,84.7 M69.2,171.1l-0.2-0.6l-0.2-0.6l-0.4-0.6l-0.3-0.5l-0.4-0.5l-0.5-0.4
	l-0.5-0.4l-0.5-0.4l-0.6-0.3l-0.5-0.2l-0.7-0.2l-0.6-0.2l-0.6-0.1h-0.6h-0.7l-0.6,0.1l-0.6,0.2l-0.6,0.2l-0.6,0.2l-0.6,0.3l-0.5,0.4
	l-0.5,0.4l-0.4,0.4l-0.5,0.5l-0.3,0.5l-0.3,0.6l-0.3,0.6l-0.2,0.6l-0.2,0.6l-0.1,0.6v0.6v0.7l0.1,0.6l0.1,0.6l0.2,0.6l0.2,0.6
	l0.3,0.6l0.4,0.5l0.4,0.5l0.4,0.5l0.5,0.4l0.5,0.4l0.5,0.3l0.6,0.3l0.6,0.2l0.6,0.2l0.6,0.1l0.7,0.1h0.6l0.6-0.1l0.7-0.1l0.6-0.2
	l0.6-0.2l0.5-0.3l0.6-0.3l0.5-0.4l0.5-0.4l0.4-0.5l0.4-0.5l0.3-0.5l0.3-0.6l0.3-0.6l0.1-0.6l0.2-0.6v-0.6l0.1-0.7l-0.1-0.6l-0.1-0.6
	L69.2,171.1 M136.9,171.1l-0.2-0.6l-0.3-0.6l-0.3-0.6l-0.3-0.5l-0.4-0.5l-0.5-0.4l-0.5-0.4l-0.5-0.4l-0.6-0.3l-0.6-0.2l-0.6-0.2
	l-0.6-0.2l-0.6-0.1h-0.7h-0.6l-0.6,0.1l-0.6,0.2l-0.6,0.2l-0.6,0.2l-0.6,0.3l-0.5,0.4l-0.5,0.4l-0.5,0.4l-0.4,0.5l-0.3,0.5l-0.4,0.6
	l-0.2,0.6l-0.2,0.6l-0.2,0.6l-0.1,0.6v0.6v0.7l0.1,0.6l0.1,0.6l0.2,0.6l0.2,0.6l0.3,0.6l0.3,0.5l0.4,0.5l0.5,0.5l0.4,0.4l0.6,0.4
	l0.5,0.3l0.6,0.3l0.6,0.2l0.6,0.2l0.6,0.1l0.6,0.1h0.7l0.6-0.1l0.6-0.1l0.6-0.2l0.6-0.2l0.6-0.3l0.6-0.3l0.5-0.4l0.4-0.4l0.5-0.5
	l0.4-0.5l0.3-0.5l0.3-0.6l0.2-0.6l0.2-0.6l0.1-0.6l0.1-0.6v-0.7v-0.6l-0.1-0.6L136.9,171.1 M187,216.4l-0.2-0.6l-0.3-0.5l-0.3-0.5
	l-0.3-0.5l-0.4-0.4l-0.5-0.4l-0.4-0.3l-0.5-0.3l-0.6-0.3l-0.5-0.2l-0.6-0.1l-0.6-0.1h-0.6l-0.5,0.1l-0.6,0.1l-0.6,0.1l-0.5,0.2
	l-0.6,0.3l-0.4,0.3l-0.5,0.4l-0.4,0.4l-0.4,0.4l-0.3,0.5l-0.3,0.5l-0.2,0.6l-0.2,0.5l-0.1,0.6l-0.1,0.6v0.6l0.1,0.6l0.1,0.5l0.1,0.6
	l0.3,0.5l0.2,0.5l0.4,0.5l0.4,0.5l0.4,0.4l0.4,0.4l0.5,0.3l0.5,0.2l0.6,0.3l0.5,0.1l0.6,0.1l0.6,0.1h0.6l0.6-0.1l0.5-0.1l0.6-0.2
	l0.5-0.3l0.5-0.3l0.5-0.3l0.5-0.4l0.4-0.4l0.3-0.5l0.3-0.5l0.3-0.5l0.2-0.6l0.1-0.5l0.1-0.6v-0.6v-0.6l-0.1-0.6L187,216.4 M421,40
	l-0.2-0.6l-0.3-0.5l-0.3-0.5l-0.3-0.5l-0.4-0.4l-0.5-0.4l-0.4-0.3l-0.5-0.3l-0.6-0.3L417,36l-0.6-0.1l-0.6-0.1h-0.6l-0.5,0.1
	l-0.6,0.1l-0.6,0.1l-0.5,0.2l-0.6,0.3l-0.4,0.3l-0.5,0.4l-0.4,0.4l-0.4,0.4l-0.3,0.5l-0.3,0.5l-0.2,0.6l-0.2,0.5l-0.1,0.6l-0.1,0.6
	V42l0.1,0.6l0.1,0.5l0.1,0.6l0.3,0.5l0.2,0.5l0.4,0.5l0.4,0.5l0.4,0.4l0.4,0.4l0.5,0.3l0.5,0.2l0.6,0.3l0.5,0.1l0.6,0.1l0.6,0.1h0.6
	l0.6-0.1l0.5-0.1l0.6-0.2l0.5-0.3l0.5-0.3l0.5-0.3l0.5-0.4l0.4-0.4l0.3-0.5l0.3-0.5l0.3-0.5l0.2-0.6l0.1-0.5l0.1-0.6v-0.6v-0.6
	l-0.1-0.6L421,40 M8.4,232.5v0.9l0.1,0.9l0.1,0.9l0.2,0.9l0.3,0.9l0.3,0.9l0.3,0.8l0.5,0.8l0.4,0.8l0.5,0.8l0.6,0.7l0.6,0.7l0.7,0.7
	l0.7,0.6l0.7,0.5l0.7,0.5l0.8,0.5l0.8,0.4l0.9,0.4l0.9,0.3l0.8,0.3l0.9,0.2l0.9,0.1l1,0.1H23 M23,12.7h-0.9l-1,0.1l-0.9,0.1
	l-0.9,0.2l-0.8,0.3l-0.9,0.3l-0.9,0.4l-0.8,0.4L15.1,15l-0.7,0.5L13.7,16L13,16.6l-0.7,0.7L11.7,18l-0.6,0.7l-0.5,0.8l-0.4,0.8
	l-0.5,0.8l-0.3,0.8l-0.3,0.9l-0.3,0.9l-0.2,0.9l-0.1,0.9l-0.1,0.9v0.9 M433.6,16.5V16l-0.1-0.5l-0.2-0.5l-0.2-0.4l-0.3-0.4l-0.3-0.4
	l-0.4-0.3l-0.4-0.3l-0.5-0.2l-0.4-0.2l-0.5-0.1h-0.5 M429.8,247.1h0.5l0.5-0.1l0.4-0.2l0.5-0.2l0.4-0.3l0.4-0.3l0.3-0.4l0.3-0.4
	l0.2-0.4l0.2-0.5l0.1-0.5v-0.5 M421,216.4l-0.2-0.6l-0.3-0.5l-0.3-0.5l-0.3-0.5l-0.4-0.4l-0.5-0.4l-0.4-0.3l-0.5-0.3l-0.6-0.3
	l-0.5-0.2l-0.6-0.1l-0.6-0.1h-0.6l-0.5,0.1l-0.6,0.1l-0.6,0.1l-0.5,0.2l-0.6,0.3l-0.4,0.3l-0.5,0.4l-0.4,0.4l-0.4,0.4l-0.3,0.5
	l-0.3,0.5l-0.2,0.6l-0.2,0.5l-0.1,0.6l-0.1,0.6v0.6l0.1,0.6l0.1,0.5l0.1,0.6l0.3,0.5l0.2,0.5l0.4,0.5l0.4,0.5l0.4,0.4l0.4,0.4
	l0.5,0.3l0.5,0.2l0.6,0.3l0.5,0.1l0.6,0.1l0.6,0.1h0.6l0.6-0.1l0.5-0.1l0.6-0.2l0.5-0.3l0.5-0.3l0.5-0.3l0.5-0.4l0.4-0.4l0.3-0.5
	l0.3-0.5l0.3-0.5l0.2-0.6l0.1-0.5l0.1-0.6v-0.6v-0.6l-0.1-0.6L421,216.4"/>
<path class="st1" d="M419.2,247.1h10.6 M419.2,256.1v-9 M390,256.1h29.2 M390,247.1v9 M361.6,247.1H390 M361.6,256.1v-9
	 M332.4,256.1h29.2 M332.4,247.1v9 M304,247.1h28.4 M304,256.1v-9 M274.8,256.1H304 M274.8,247.1v9 M23,247.1h251.8 M8.4,27.3v205.2
	 M274.8,12.7H23 M274.8,3.7v9 M304,3.7h-29.2 M304,12.7v-9 M332.4,12.7H304 M332.4,3.7v9 M361.6,3.7h-29.2 M361.6,12.7v-9 M390,12.7
	h-28.4 M390,3.7v9 M419.2,3.7H390 M419.2,12.7v-9 M429.8,12.7h-10.6 M433.6,243.3V16.5"/>
</svg>
