<?xml version="1.0" encoding="utf-8"?>
<!-- Generator: Adobe Illustrator 24.3.0, SVG Export Plug-In . SVG Version: 6.00 Build 0)  -->
<svg version="1.1" id="Layer_1" xmlns="http://www.w3.org/2000/svg" xmlns:xlink="http://www.w3.org/1999/xlink" x="0px" y="0px"
	 viewBox="0 0 190.8 108" style="enable-background:new 0 0 190.8 108;" xml:space="preserve">
<style type="text/css">
	.st0{fill:none;stroke:#808080;stroke-width:0.709;stroke-miterlimit:10;}
	.st1{fill:none;stroke:#808080;stroke-width:0.709;stroke-linecap:round;stroke-linejoin:round;stroke-miterlimit:10;}
</style>
<path class="st0" d="M184.8,21.8l-0.1-0.9V20l-0.2-0.9l-0.2-0.9l-0.2-0.9l-0.4-0.9l-0.3-0.8l-0.4-0.8l-0.5-0.8l-0.5-0.8l-0.6-0.7
	l-0.6-0.7l-0.6-0.7l-0.7-0.6l-0.8-0.5L178,9.5L177.2,9l-0.8-0.4l-0.9-0.4l-0.8-0.3l-0.9-0.3l-0.9-0.2L172,7.3l-0.9-0.1h-0.9 M19,7.2
	h-1l-0.9,0.1l-0.9,0.1l-0.9,0.2l-0.9,0.3l-0.8,0.3l-0.9,0.4L11.9,9l-0.8,0.5L10.4,10l-0.8,0.5L9,11.1l-0.7,0.7l-0.6,0.7l-0.6,0.7
	L6.6,14l-0.4,0.8l-0.5,0.8l-0.3,0.8l-0.3,0.9l-0.3,0.9l-0.2,0.9L4.5,20l-0.1,0.9l-0.1,0.9 M4.3,87.7l0.1,0.9l0.1,0.9l0.1,0.9
	l0.2,0.9l0.3,0.9l0.3,0.9l0.3,0.8l0.5,0.8l0.4,0.8l0.5,0.8L7.7,97l0.6,0.7L9,98.3l0.6,0.6l0.8,0.6l0.7,0.5l0.8,0.5l0.8,0.4l0.9,0.4
	l0.8,0.3l0.9,0.2l0.9,0.2l0.9,0.2l0.9,0.1h1 M170.2,102.3h0.9l0.9-0.1l0.9-0.2l0.9-0.2l0.9-0.2l0.8-0.3l0.9-0.4l0.8-0.4l0.8-0.5
	l0.7-0.5l0.8-0.6l0.7-0.6l0.6-0.6l0.6-0.7l0.6-0.7l0.5-0.8l0.5-0.8l0.4-0.8l0.3-0.8l0.4-0.9l0.2-0.9l0.2-0.9l0.2-0.9v-0.9l0.1-0.9
	 M171.2,43.4l-0.2-0.6l-0.2-0.5l-0.3-0.5l-0.4-0.5l-0.4-0.4l-0.4-0.4l-0.5-0.4l-0.5-0.3l-0.5-0.2l-0.6-0.2l-0.5-0.2l-0.6-0.1h-0.6
	h-0.6l-0.6,0.1l-0.5,0.1l-0.6,0.2l-0.5,0.2l-0.5,0.3l-0.5,0.4l-0.5,0.3l-0.4,0.5l-0.3,0.4l-0.4,0.5l-0.2,0.5l-0.3,0.6l-0.1,0.5
	l-0.1,0.6l-0.1,0.6v0.6l0.1,0.6l0.1,0.6l0.2,0.5l0.2,0.6l0.3,0.5l0.3,0.5l0.4,0.4l0.4,0.4l0.4,0.4l0.5,0.4l0.5,0.2l0.6,0.3l0.5,0.1
	l0.6,0.2h0.6h0.6h0.6l0.6-0.1l0.5-0.2l0.6-0.2l0.5-0.2l0.5-0.4l0.5-0.3l0.4-0.4l0.4-0.5l0.3-0.4l0.3-0.5l0.3-0.6l0.1-0.5l0.2-0.6
	l0.1-0.6v-0.6v-0.6l-0.1-0.5L171.2,43.4 M171.2,71.5L171,71l-0.2-0.6l-0.3-0.5l-0.4-0.4l-0.4-0.5l-0.4-0.4l-0.5-0.3l-0.5-0.3
	l-0.5-0.3l-0.6-0.2l-0.5-0.1l-0.6-0.1l-0.6-0.1h-0.6l-0.6,0.1l-0.5,0.2l-0.6,0.1l-0.5,0.3l-0.5,0.3l-0.5,0.3l-0.5,0.4l-0.4,0.4
	l-0.3,0.5l-0.4,0.5l-0.2,0.5l-0.3,0.5l-0.1,0.6l-0.1,0.6l-0.1,0.6v0.5l0.1,0.6l0.1,0.6l0.2,0.6l0.2,0.5l0.3,0.5l0.3,0.5l0.4,0.5
	l0.4,0.4l0.4,0.4l0.5,0.3l0.5,0.3l0.6,0.2l0.5,0.2l0.6,0.1l0.6,0.1h0.6l0.6-0.1l0.6-0.1l0.5-0.1l0.6-0.2l0.5-0.3l0.5-0.3l0.5-0.4
	l0.4-0.4l0.4-0.4l0.3-0.5l0.3-0.5l0.3-0.5l0.1-0.6l0.2-0.6l0.1-0.5v-0.6v-0.6l-0.1-0.6L171.2,71.5 M29.5,71.5L29.3,71l-0.2-0.6
	l-0.3-0.5l-0.4-0.4L28,69l-0.4-0.4l-0.5-0.3L26.6,68l-0.5-0.3l-0.5-0.2L25,67.4l-0.6-0.1l-0.6-0.1h-0.6l-0.6,0.1l-0.5,0.2l-0.6,0.1
	L21,67.9l-0.5,0.3L20,68.5l-0.5,0.4l-0.4,0.4l-0.3,0.5l-0.4,0.5l-0.2,0.5L18,71.3l-0.2,0.6l-0.1,0.6l-0.1,0.6v0.5l0.1,0.6l0.1,0.6
	l0.2,0.6l0.2,0.5l0.3,0.5l0.3,0.5l0.4,0.5l0.4,0.4l0.5,0.4l0.4,0.3l0.6,0.3l0.5,0.2l0.6,0.2l0.5,0.1l0.6,0.1h0.6l0.6-0.1l0.6-0.1
	l0.5-0.1l0.6-0.2l0.5-0.3l0.5-0.3l0.5-0.4l0.4-0.4l0.4-0.4l0.3-0.5l0.3-0.5l0.3-0.5l0.2-0.6l0.1-0.6l0.1-0.5v-0.6v-0.6l-0.1-0.6
	L29.5,71.5 M29.5,43.4l-0.2-0.6l-0.2-0.5l-0.3-0.5l-0.4-0.5L28,40.9l-0.4-0.4l-0.5-0.4l-0.5-0.3l-0.5-0.2l-0.5-0.2L25,39.2l-0.6-0.1
	h-0.6h-0.6l-0.6,0.1l-0.5,0.1l-0.6,0.2L21,39.7L20.5,40L20,40.4l-0.5,0.3l-0.4,0.5l-0.3,0.4l-0.4,0.5l-0.2,0.5L18,43.2l-0.2,0.5
	l-0.1,0.6l-0.1,0.6v0.6l0.1,0.6l0.1,0.6l0.2,0.5l0.2,0.6l0.3,0.5l0.3,0.5l0.4,0.4l0.4,0.4l0.5,0.4l0.4,0.4l0.6,0.2l0.5,0.3l0.6,0.1
	l0.5,0.2h0.6h0.6h0.6l0.6-0.1l0.5-0.2l0.6-0.2l0.5-0.2l0.5-0.4l0.5-0.3l0.4-0.4l0.4-0.5l0.3-0.4l0.3-0.5l0.3-0.6l0.2-0.5l0.1-0.6
	l0.1-0.6v-0.6v-0.6L29.7,44L29.5,43.4"/>
<path class="st1" d="M170.2,7.2H19 M4.3,21.8v65.9 M19,102.3h151.2 M184.8,87.7V21.8 M151.9,31H37.2 M37.2,31v25.9 M37.2,56.9H17.4
	 M17.4,61.5h19.8 M17.4,56.9v4.6 M37.2,61.5v26 M37.2,87.5h114.7 M151.9,87.5v-26 M151.9,61.5h19.8 M171.7,56.9h-19.8 M151.9,56.9
	V31 M171.7,61.5v-4.6 M141.6,23.4h28.3 M141.6,14.8v8.6 M169.9,14.8h-28.3 M169.9,23.4v-8.6 M84,23.4h28.3 M112.3,23.4v-8.6
	 M112.3,14.8H84 M84,14.8v8.6 M26.4,23.4h28.3 M54.7,23.4v-8.6 M54.7,14.8H26.4 M26.4,14.8v8.6"/>
</svg>
