<?xml version="1.0" encoding="utf-8"?>
<!-- Generator: Adobe Illustrator 24.3.0, SVG Export Plug-In . SVG Version: 6.00 Build 0)  -->
<svg version="1.1" id="Layer_1" xmlns="http://www.w3.org/2000/svg" xmlns:xlink="http://www.w3.org/1999/xlink" x="0px" y="0px"
	 viewBox="0 0 241.2 277.2" style="enable-background:new 0 0 241.2 277.2;" xml:space="preserve">
<style type="text/css">
	.st0{fill:none;stroke:#808080;stroke-width:0.709;stroke-miterlimit:10;}
	.st1{fill:none;stroke:#808080;stroke-width:0.709;stroke-linecap:round;stroke-linejoin:round;stroke-miterlimit:10;}
</style>
<path class="st0" d="M214.6,257.8l-0.2,0.5l-0.2,0.6l-0.3,0.5l-0.4,0.4l-0.4,0.5l-0.4,0.4l-0.5,0.3l-0.5,0.3l-0.5,0.2l-0.6,0.2
	l-0.6,0.2h-0.5l-0.6,0.1l-0.6-0.1l-0.6-0.1l-0.6-0.1l-0.5-0.3l-0.5-0.2l-0.5-0.3l-0.5-0.4l-0.4-0.4l-0.4-0.5l-0.3-0.4l-0.3-0.6
	l-0.2-0.5l-0.2-0.6l-0.1-0.5l-0.1-0.6v-0.6l0.1-0.6l0.1-0.6l0.2-0.5l0.2-0.6l0.3-0.5l0.3-0.5l0.4-0.4l0.4-0.4l0.5-0.4l0.4-0.3
	l0.6-0.3l0.5-0.2l0.6-0.2l0.6-0.1h0.5h0.6l0.6,0.1l0.6,0.1l0.5,0.2l0.6,0.2l0.5,0.3l0.5,0.4l0.4,0.4l0.4,0.4l0.3,0.5l0.4,0.5
	l0.2,0.5l0.2,0.5l0.2,0.6v0.6l0.1,0.6l-0.1,0.5v0.6L214.6,257.8 M214.6,23.8l-0.2,0.5l-0.2,0.6l-0.3,0.5l-0.4,0.4l-0.4,0.5l-0.4,0.4
	l-0.5,0.3l-0.5,0.3l-0.5,0.2l-0.6,0.2l-0.6,0.2h-0.5l-0.6,0.1l-0.6-0.1l-0.6-0.1l-0.6-0.1l-0.5-0.3l-0.5-0.2l-0.5-0.3l-0.5-0.4
	l-0.4-0.4l-0.4-0.5l-0.3-0.4l-0.3-0.6l-0.2-0.5l-0.2-0.6l-0.1-0.5l-0.1-0.6v-0.6l0.1-0.6l0.1-0.6l0.2-0.5l0.2-0.6L204,19l0.3-0.5
	l0.4-0.4l0.4-0.4l0.5-0.4L206,17l0.6-0.3l0.5-0.2l0.6-0.2l0.6-0.1h0.5h0.6l0.6,0.1l0.6,0.1l0.5,0.2l0.6,0.2l0.5,0.3l0.5,0.4l0.4,0.4
	l0.4,0.4l0.3,0.5l0.4,0.5l0.2,0.5l0.2,0.5l0.2,0.6v0.6l0.1,0.6l-0.1,0.5v0.6L214.6,23.8 M38.2,23.8L38,24.3l-0.2,0.6l-0.3,0.5
	l-0.4,0.4l-0.4,0.5l-0.4,0.4L35.8,27l-0.5,0.3l-0.5,0.2l-0.6,0.2l-0.6,0.2h-0.5L32.5,28l-0.6-0.1l-0.6-0.1l-0.6-0.1l-0.5-0.3
	l-0.5-0.2l-0.5-0.3l-0.5-0.4l-0.4-0.4l-0.4-0.5l-0.3-0.4l-0.3-0.6l-0.2-0.5l-0.2-0.6L26.8,23l-0.1-0.6v-0.6l0.1-0.6l0.1-0.6l0.2-0.5
	l0.2-0.6l0.3-0.5l0.3-0.5l0.4-0.4l0.4-0.4l0.5-0.4l0.4-0.3l0.6-0.3l0.5-0.2l0.6-0.2l0.6-0.1h0.5H33l0.6,0.1l0.6,0.1l0.5,0.2l0.6,0.2
	l0.5,0.3l0.5,0.4l0.4,0.4l0.4,0.4l0.3,0.5l0.4,0.5l0.2,0.5l0.2,0.5l0.2,0.6v0.6l0.1,0.6l-0.1,0.5v0.6L38.2,23.8 M238,259.7v0.9
	l-0.1,0.9l-0.1,0.9l-0.2,0.9l-0.3,0.9l-0.3,0.9l-0.4,0.8l-0.4,0.8l-0.5,0.8l-0.5,0.8l-0.5,0.7l-0.6,0.7l-0.7,0.6l-0.7,0.6l-0.7,0.6
	l-0.8,0.5l-0.8,0.5l-0.8,0.4l-0.8,0.4l-0.9,0.3l-0.9,0.2l-0.9,0.2l-0.9,0.2l-0.9,0.1h-0.9 M223.4,3.9h0.9l0.9,0.1l0.9,0.1l0.9,0.2
	l0.9,0.3l0.9,0.3l0.8,0.3l0.8,0.5l0.8,0.4l0.8,0.5l0.7,0.6l0.7,0.6l0.7,0.7l0.6,0.7l0.5,0.7l0.5,0.7l0.5,0.8l0.4,0.9l0.4,0.8
	l0.3,0.9l0.3,0.8l0.2,0.9l0.1,0.9l0.1,1v0.9 M3.6,18.5v-0.9l0.1-1l0.1-0.9L4,14.8L4.3,14l0.3-0.9L5,12.3l0.4-0.9l0.5-0.8l0.5-0.7
	l0.5-0.7l0.6-0.7l0.7-0.7l0.7-0.6l0.7-0.6l0.8-0.5l0.8-0.4L12,5.2l0.8-0.3l0.9-0.3l0.9-0.3l0.9-0.2L16.4,4l0.9-0.1h0.9 M18.2,274.3
	h-0.9l-0.9-0.1l-0.9-0.2l-0.9-0.2l-0.9-0.2l-0.9-0.3l-0.8-0.4l-0.8-0.4l-0.8-0.5l-0.8-0.5l-0.7-0.6l-0.7-0.6l-0.7-0.6L6.9,269
	l-0.5-0.7l-0.5-0.8l-0.5-0.8L5,265.9l-0.4-0.8l-0.3-0.9L4,263.3l-0.2-0.9l-0.1-0.9l-0.1-0.9v-0.9 M38.2,257.8l-0.2,0.5l-0.2,0.6
	l-0.3,0.5l-0.4,0.4l-0.4,0.5l-0.4,0.4l-0.5,0.3l-0.5,0.3l-0.5,0.2l-0.6,0.2l-0.6,0.2h-0.5l-0.6,0.1l-0.6-0.1l-0.6-0.1l-0.6-0.1
	l-0.5-0.3l-0.5-0.2l-0.5-0.3l-0.5-0.4l-0.4-0.4l-0.4-0.5l-0.3-0.4l-0.3-0.6l-0.2-0.5l-0.2-0.6l-0.1-0.5l-0.1-0.6v-0.6l0.1-0.6
	l0.1-0.6l0.2-0.5l0.2-0.6l0.3-0.5l0.3-0.5l0.4-0.4l0.4-0.4l0.5-0.4l0.4-0.3l0.6-0.3l0.5-0.2l0.6-0.2l0.6-0.1h0.5H33l0.6,0.1l0.6,0.1
	l0.5,0.2l0.6,0.2l0.5,0.3l0.5,0.4l0.4,0.4l0.4,0.4l0.3,0.5l0.4,0.5l0.2,0.5l0.2,0.5l0.2,0.6v0.6l0.1,0.6l-0.1,0.5v0.6L38.2,257.8"/>
<path class="st1" d="M223.4,274.3H18.2 M238,18.5v241.2 M18.2,3.9h205.2 M3.6,259.7V18.5"/>
</svg>
