<?xml version="1.0" encoding="utf-8"?>
<!-- Generator: Adobe Illustrator 24.3.0, SVG Export Plug-In . SVG Version: 6.00 Build 0)  -->
<svg version="1.1" id="Layer_1" xmlns="http://www.w3.org/2000/svg" xmlns:xlink="http://www.w3.org/1999/xlink" x="0px" y="0px"
	 viewBox="0 0 450 720" style="enable-background:new 0 0 450 720;" xml:space="preserve">
<style type="text/css">
	.st0{fill:none;stroke:#808080;stroke-width:0.709;stroke-miterlimit:10;}
	.st1{fill:none;stroke:#808080;stroke-width:0.709;stroke-linecap:round;stroke-linejoin:round;stroke-miterlimit:10;}
</style>
<path class="st0" d="M232.8,632.5l-0.2,0.5l-0.2,0.5l-0.3,0.5l-0.4,0.5l-0.3,0.4l-0.5,0.3l-0.4,0.3l-0.5,0.3l-0.5,0.2l-0.6,0.2
	l-0.5,0.1l-0.6,0.1h-0.6l-0.5-0.1l-0.6-0.1l-0.5-0.2l-0.5-0.2l-0.5-0.3l-0.4-0.4l-0.5-0.3l-0.3-0.5l-0.4-0.4l-0.3-0.5l-0.2-0.5
	l-0.2-0.5l-0.1-0.6v-0.5l-0.1-0.6l0.1-0.6l0.1-0.5l0.2-0.6l0.2-0.5l0.3-0.5l0.3-0.4l0.3-0.4l0.5-0.4l0.4-0.4l0.5-0.3l0.5-0.2
	l0.5-0.2l0.6-0.1l0.5-0.1h0.6h0.5l0.6,0.1l0.5,0.1l0.5,0.2l0.5,0.3l0.5,0.3l0.5,0.4l0.3,0.4l0.4,0.4l0.3,0.5l0.3,0.5l0.2,0.5
	l0.1,0.5l0.1,0.6l0.1,0.5l-0.1,0.6l-0.1,0.6L232.8,632.5 M232.8,405.7l-0.2,0.5l-0.2,0.5l-0.3,0.5l-0.4,0.5l-0.3,0.4l-0.5,0.3
	l-0.4,0.3L230,409l-0.5,0.2l-0.6,0.2l-0.5,0.1l-0.6,0.1h-0.6l-0.5-0.1l-0.6-0.1l-0.5-0.2l-0.5-0.2l-0.5-0.3l-0.4-0.4l-0.5-0.3
	l-0.3-0.5l-0.4-0.4l-0.3-0.5l-0.2-0.5l-0.2-0.5l-0.1-0.6v-0.5l-0.1-0.6l0.1-0.6l0.1-0.5l0.2-0.6l0.2-0.5l0.3-0.5l0.3-0.4l0.3-0.4
	l0.5-0.4l0.4-0.4l0.5-0.3l0.5-0.2l0.5-0.2l0.6-0.1l0.5-0.1h0.6h0.5l0.6,0.1l0.5,0.1l0.5,0.2l0.5,0.3l0.5,0.3l0.5,0.4l0.3,0.4
	l0.4,0.4l0.3,0.5l0.3,0.5l0.2,0.5l0.1,0.5l0.1,0.6l0.1,0.5l-0.1,0.6l-0.1,0.6L232.8,405.7 M42,405.7l-0.2,0.5l-0.2,0.5l-0.3,0.5
	l-0.4,0.5l-0.3,0.4l-0.5,0.3l-0.4,0.3l-0.5,0.3l-0.5,0.2l-0.6,0.2l-0.5,0.1l-0.6,0.1h-0.6l-0.5-0.1l-0.6-0.1l-0.5-0.2l-0.5-0.2
	l-0.5-0.3l-0.4-0.4l-0.5-0.3l-0.3-0.5l-0.4-0.4l-0.3-0.5l-0.2-0.5l-0.2-0.5l-0.1-0.6v-0.5l-0.1-0.6l0.1-0.6l0.1-0.5l0.2-0.6l0.2-0.5
	l0.3-0.5l0.3-0.4l0.3-0.4l0.5-0.4l0.4-0.4l0.5-0.3l0.5-0.2l0.5-0.2l0.6-0.1l0.5-0.1h0.6h0.5l0.6,0.1l0.5,0.1l0.5,0.2l0.5,0.3
	l0.5,0.3l0.5,0.4l0.3,0.4l0.4,0.4l0.3,0.5l0.3,0.5l0.2,0.5l0.1,0.5l0.1,0.6l0.1,0.5l-0.1,0.6l-0.1,0.6L42,405.7 M249.4,638.1v0.9
	l-0.1,0.9l-0.1,0.9l-0.2,0.9l-0.3,0.9l-0.3,0.9l-0.4,0.8l-0.4,0.8l-0.5,0.8l-0.5,0.8l-0.5,0.7l-0.6,0.7l-0.7,0.7l-0.7,0.6l-0.7,0.5
	l-0.8,0.5l-0.8,0.5l-0.8,0.4l-0.8,0.4l-0.9,0.3l-0.9,0.3l-0.9,0.2l-0.9,0.1l-0.9,0.1h-0.9 M234.8,382.3h0.9l0.9,0.1l0.9,0.2l0.9,0.2
	l0.9,0.2l0.9,0.3l0.8,0.4l0.8,0.4l0.8,0.5l0.8,0.5l0.7,0.5l0.7,0.7l0.7,0.6l0.6,0.7l0.5,0.7l0.5,0.8l0.5,0.8l0.4,0.8l0.4,0.8
	l0.3,0.9l0.3,0.9l0.2,0.9l0.1,0.9l0.1,0.9v0.9 M15,396.9V396l0.1-0.9l0.1-0.9l0.2-0.9l0.3-0.9l0.3-0.9l0.4-0.8l0.4-0.8l0.5-0.8
	l0.5-0.8l0.5-0.7l0.6-0.7l0.7-0.6l0.7-0.7l0.7-0.5l0.8-0.5l0.8-0.5l0.8-0.4l0.8-0.4l0.9-0.3l0.9-0.2l0.9-0.2l0.9-0.2l0.9-0.1h0.9
	 M29.6,652.7h-0.9l-0.9-0.1l-0.9-0.1l-0.9-0.2l-0.9-0.3l-0.9-0.3l-0.8-0.4l-0.8-0.4l-0.8-0.5l-0.8-0.5l-0.7-0.5l-0.7-0.6l-0.7-0.7
	l-0.6-0.7l-0.5-0.7l-0.5-0.8l-0.5-0.8l-0.4-0.8l-0.4-0.8l-0.3-0.9l-0.3-0.9l-0.2-0.9l-0.1-0.9L15,639v-0.9 M42,632.5l-0.2,0.5
	l-0.2,0.5l-0.3,0.5l-0.4,0.5l-0.3,0.4l-0.5,0.3l-0.4,0.3l-0.5,0.3l-0.5,0.2l-0.6,0.2l-0.5,0.1l-0.6,0.1h-0.6l-0.5-0.1l-0.6-0.1
	l-0.5-0.2l-0.5-0.2l-0.5-0.3l-0.4-0.4l-0.5-0.3l-0.3-0.5l-0.4-0.4l-0.3-0.5l-0.2-0.5l-0.2-0.5l-0.1-0.6v-0.5l-0.1-0.6l0.1-0.6
	l0.1-0.5l0.2-0.6l0.2-0.5l0.3-0.5l0.3-0.4l0.3-0.4l0.5-0.4l0.4-0.4l0.5-0.3l0.5-0.2l0.5-0.2l0.6-0.1l0.5-0.1h0.6h0.5l0.6,0.1
	l0.5,0.1l0.5,0.2l0.5,0.3l0.5,0.3l0.5,0.4l0.3,0.4l0.4,0.4l0.3,0.5l0.3,0.5l0.2,0.5l0.1,0.5l0.1,0.6l0.1,0.5l-0.1,0.6l-0.1,0.6
	L42,632.5 M195.7,286.9l-0.1-0.9l-0.1-0.9l-0.1-0.9l-0.2-0.9l-0.3-0.9l-0.3-0.9l-0.3-0.8l-0.4-0.9l-0.5-0.7l-0.5-0.8l-0.6-0.7
	l-0.6-0.7l-0.7-0.7l-0.6-0.6l-0.8-0.5l-0.7-0.6l-0.8-0.4l-0.8-0.4l-0.9-0.4l-0.8-0.3l-0.9-0.3l-0.9-0.2l-0.9-0.1l-0.9-0.1h-1
	 M29.8,272.3h-0.9l-0.9,0.1l-0.9,0.1l-0.9,0.2l-0.9,0.3l-0.8,0.3l-0.9,0.4l-0.8,0.4l-0.8,0.4l-0.7,0.6l-0.8,0.5l-0.7,0.6l-0.6,0.7
	l-0.6,0.7l-0.6,0.7l-0.5,0.8l-0.5,0.7l-0.4,0.9l-0.3,0.8l-0.4,0.9l-0.2,0.9l-0.2,0.9l-0.2,0.9v0.9l-0.1,0.9 M15.2,352.8l0.1,0.9v0.9
	l0.2,0.9l0.2,0.9l0.2,0.9l0.4,0.9l0.3,0.8l0.4,0.8l0.5,0.8l0.5,0.8l0.6,0.7l0.6,0.7l0.6,0.6l0.7,0.6l0.8,0.6l0.7,0.5l0.8,0.5
	l0.8,0.4l0.9,0.4l0.8,0.3l0.9,0.2l0.9,0.2l0.9,0.2l0.9,0.1h0.9 M181,367.4h1l0.9-0.1l0.9-0.2l0.9-0.2l0.9-0.2l0.8-0.3l0.9-0.4
	l0.8-0.4l0.8-0.5l0.7-0.5l0.8-0.6l0.6-0.6l0.7-0.6l0.6-0.7l0.6-0.7l0.5-0.8l0.5-0.8l0.4-0.8l0.3-0.8l0.3-0.9l0.3-0.9l0.2-0.9
	l0.1-0.9l0.1-0.9l0.1-0.9 M182.1,308.5l-0.2-0.6l-0.2-0.5l-0.3-0.5l-0.4-0.5l-0.4-0.4l-0.4-0.4l-0.5-0.4l-0.5-0.3l-0.5-0.2l-0.6-0.2
	l-0.5-0.2l-0.6-0.1h-0.6h-0.6l-0.6,0.1l-0.6,0.1l-0.5,0.2l-0.5,0.2l-0.6,0.3l-0.4,0.3l-0.5,0.4l-0.4,0.5l-0.4,0.4l-0.3,0.5l-0.2,0.5
	l-0.3,0.6l-0.1,0.5l-0.1,0.6l-0.1,0.6v0.6l0.1,0.6l0.1,0.5l0.2,0.6l0.2,0.6l0.3,0.5l0.3,0.5l0.4,0.4l0.4,0.4l0.4,0.4l0.5,0.3
	l0.5,0.3l0.6,0.3l0.5,0.1l0.6,0.2h0.6h0.6h0.6l0.5-0.1l0.6-0.2l0.6-0.2l0.5-0.2l0.5-0.4l0.4-0.3l0.5-0.4l0.4-0.5l0.3-0.4l0.3-0.6
	l0.2-0.5l0.2-0.5l0.2-0.6v-0.6l0.1-0.6l-0.1-0.6l-0.1-0.6L182.1,308.5 M182.1,336.6l-0.2-0.5l-0.2-0.6l-0.3-0.5l-0.4-0.4l-0.4-0.5
	l-0.4-0.4l-0.5-0.3l-0.5-0.3l-0.5-0.3l-0.6-0.2l-0.5-0.1l-0.6-0.1l-0.6-0.1h-0.6l-0.6,0.1l-0.6,0.1l-0.5,0.2l-0.5,0.3l-0.6,0.3
	l-0.4,0.3l-0.5,0.4l-0.4,0.4l-0.4,0.5l-0.3,0.5l-0.2,0.5l-0.3,0.5l-0.1,0.6l-0.1,0.6l-0.1,0.6v0.5l0.1,0.6l0.1,0.6l0.2,0.6l0.2,0.5
	l0.3,0.5l0.3,0.5l0.4,0.5l0.4,0.4l0.4,0.4l0.5,0.3l0.5,0.3l0.6,0.2l0.5,0.2l0.6,0.1l0.6,0.1h0.6l0.6-0.1l0.5-0.1l0.6-0.1l0.6-0.2
	l0.5-0.3l0.5-0.3l0.4-0.4l0.5-0.4l0.4-0.4l0.3-0.5l0.3-0.5l0.2-0.5l0.2-0.6l0.2-0.6V339l0.1-0.6l-0.1-0.6l-0.1-0.6L182.1,336.6
	 M40.4,336.6l-0.2-0.5l-0.2-0.6l-0.3-0.5l-0.4-0.4l-0.4-0.5l-0.4-0.4l-0.5-0.3l-0.5-0.3l-0.5-0.3l-0.6-0.2l-0.5-0.1l-0.6-0.1
	l-0.6-0.1h-0.6l-0.6,0.1l-0.5,0.1l-0.6,0.2l-0.5,0.3l-0.5,0.3l-0.5,0.3l-0.5,0.4l-0.4,0.4l-0.3,0.5l-0.4,0.5l-0.2,0.5l-0.3,0.5
	l-0.1,0.6l-0.1,0.6l-0.1,0.6v0.5l0.1,0.6l0.1,0.6l0.2,0.6l0.2,0.5l0.3,0.5l0.3,0.5l0.4,0.5l0.4,0.4l0.4,0.4l0.5,0.3l0.5,0.3l0.6,0.2
	l0.5,0.2l0.6,0.1l0.6,0.1h0.6l0.6-0.1l0.6-0.1l0.5-0.1l0.6-0.2l0.5-0.3l0.5-0.3l0.5-0.4l0.4-0.4l0.4-0.4l0.3-0.5l0.3-0.5l0.2-0.5
	l0.2-0.6l0.2-0.6l0.1-0.5v-0.6l-0.1-0.6v-0.6L40.4,336.6 M40.4,308.5l-0.2-0.6l-0.2-0.5l-0.3-0.5l-0.4-0.5l-0.4-0.4l-0.4-0.4
	l-0.5-0.4l-0.5-0.3l-0.5-0.2l-0.6-0.2l-0.5-0.2l-0.6-0.1h-0.6h-0.6l-0.6,0.1l-0.5,0.1l-0.6,0.2l-0.5,0.2l-0.5,0.3l-0.5,0.3l-0.5,0.4
	l-0.4,0.5l-0.3,0.4l-0.4,0.5l-0.2,0.5l-0.3,0.6l-0.1,0.5l-0.1,0.6l-0.1,0.6v0.6l0.1,0.6l0.1,0.5l0.2,0.6l0.2,0.6l0.3,0.5l0.3,0.5
	l0.4,0.4l0.4,0.4l0.4,0.4l0.5,0.3l0.5,0.3l0.6,0.3l0.5,0.1l0.6,0.2h0.6h0.6h0.6l0.6-0.1l0.5-0.2l0.6-0.2l0.5-0.2l0.5-0.4l0.5-0.3
	l0.4-0.4l0.4-0.5l0.3-0.4L40,313l0.2-0.5l0.2-0.5l0.2-0.6l0.1-0.6v-0.6l-0.1-0.6V309L40.4,308.5 M420.6,293.3v-0.9l-0.1-0.9
	l-0.2-0.9l-0.2-0.9l-0.2-0.9l-0.3-0.8l-0.4-0.9l-0.4-0.8l-0.5-0.8l-0.5-0.8l-0.5-0.7l-0.7-0.7l-0.6-0.6l-0.7-0.6l-0.7-0.6l-0.8-0.5
	l-0.8-0.5l-0.8-0.4l-0.8-0.4l-0.9-0.3l-0.9-0.2l-0.9-0.2l-0.9-0.2h-0.9l-0.9-0.1 M254.8,278.7l-0.9,0.1H253l-1,0.2l-0.8,0.2
	l-0.9,0.2l-0.9,0.3l-0.8,0.4l-0.9,0.4L247,281l-0.8,0.5l-0.7,0.6l-0.7,0.6l-0.7,0.6l-0.6,0.7l-0.5,0.7l-0.6,0.8l-0.4,0.8l-0.4,0.8
	l-0.4,0.9l-0.3,0.8l-0.3,0.9l-0.2,0.9l-0.1,0.9l-0.1,0.9v0.9 M240.2,359.2v0.9l0.1,1l0.1,0.9l0.2,0.9l0.3,0.8l0.3,0.9l0.4,0.8
	l0.4,0.9l0.4,0.8l0.6,0.7l0.5,0.7l0.6,0.7l0.7,0.7l0.7,0.6l0.7,0.5l0.8,0.6l0.7,0.4l0.9,0.4l0.8,0.4l0.9,0.3l0.9,0.3l0.8,0.2l1,0.1
	l0.9,0.1h0.9 M406,373.8h0.9l0.9-0.1l0.9-0.1l0.9-0.2l0.9-0.3l0.9-0.3l0.8-0.4l0.8-0.4l0.8-0.4l0.8-0.6l0.7-0.5l0.7-0.6l0.6-0.7
	l0.7-0.7l0.5-0.7l0.5-0.7l0.5-0.8l0.4-0.9l0.4-0.8l0.3-0.9l0.2-0.8l0.2-0.9l0.2-0.9l0.1-1v-0.9 M407.1,314.9l-0.2-0.5l-0.3-0.6
	l-0.3-0.5l-0.3-0.4l-0.4-0.5l-0.5-0.4l-0.4-0.3l-0.5-0.3l-0.6-0.3l-0.5-0.2l-0.6-0.1l-0.6-0.1l-0.6-0.1h-0.5l-0.6,0.1l-0.6,0.1
	L399,311l-0.5,0.3l-0.5,0.3l-0.5,0.3l-0.4,0.4l-0.4,0.4l-0.4,0.5l-0.3,0.5l-0.3,0.5l-0.2,0.5l-0.2,0.6l-0.1,0.6v0.5v0.6v0.6l0.1,0.6
	l0.2,0.6l0.2,0.5l0.3,0.5l0.3,0.5l0.4,0.5l0.4,0.4l0.5,0.4l0.5,0.3l0.5,0.3l0.5,0.2l0.6,0.2l0.5,0.1l0.6,0.1h0.6l0.6-0.1l0.6-0.1
	l0.6-0.1l0.5-0.2l0.5-0.3l0.5-0.3l0.5-0.4l0.4-0.4l0.4-0.4l0.3-0.5l0.3-0.5l0.3-0.5l0.2-0.6l0.1-0.6l0.1-0.6v-0.5v-0.6l-0.1-0.6
	L407.1,314.9 M407.1,343.1l-0.2-0.6l-0.3-0.5l-0.3-0.5L406,341l-0.4-0.4l-0.5-0.4l-0.4-0.4l-0.5-0.3l-0.6-0.2l-0.5-0.2l-0.6-0.2
	l-0.6-0.1h-0.6h-0.5l-0.6,0.1l-0.6,0.1l-0.6,0.2l-0.5,0.2l-0.5,0.3l-0.5,0.3l-0.4,0.4l-0.4,0.5l-0.4,0.4l-0.3,0.5l-0.3,0.5l-0.2,0.6
	l-0.2,0.5l-0.1,0.6v0.6v0.6v0.6l0.1,0.6l0.2,0.5l0.2,0.6l0.3,0.5l0.3,0.5l0.4,0.4l0.4,0.4l0.5,0.4l0.5,0.3l0.5,0.3l0.5,0.3l0.6,0.1
	l0.5,0.2h0.6h0.6h0.6l0.6-0.1l0.6-0.2l0.5-0.2l0.5-0.2l0.5-0.4l0.5-0.3l0.4-0.4l0.4-0.5l0.3-0.4l0.3-0.6l0.3-0.5l0.2-0.5l0.1-0.6
	l0.1-0.6v-0.6v-0.6l-0.1-0.6L407.1,343.1 M265.4,343.1l-0.2-0.6l-0.3-0.5l-0.3-0.5l-0.3-0.5l-0.4-0.4l-0.5-0.4l-0.4-0.4l-0.5-0.3
	l-0.6-0.2l-0.5-0.2l-0.6-0.2l-0.6-0.1h-0.5h-0.6l-0.6,0.1l-0.6,0.1l-0.6,0.2l-0.5,0.2l-0.5,0.3l-0.5,0.3l-0.4,0.4l-0.4,0.5l-0.4,0.4
	l-0.3,0.5l-0.3,0.5l-0.2,0.6l-0.2,0.5l-0.1,0.6v0.6v0.6v0.6l0.1,0.6l0.2,0.5l0.2,0.6l0.3,0.5l0.3,0.5l0.4,0.4l0.4,0.4l0.5,0.4
	l0.5,0.3l0.5,0.3l0.5,0.3l0.6,0.1l0.6,0.2h0.5h0.6h0.6l0.6-0.1l0.6-0.2l0.5-0.2l0.5-0.2l0.5-0.4l0.5-0.3l0.4-0.4l0.4-0.5l0.4-0.4
	l0.3-0.6l0.2-0.5l0.2-0.5l0.1-0.6l0.1-0.6v-0.6v-0.6l-0.1-0.6L265.4,343.1 M265.4,314.9l-0.2-0.5l-0.3-0.6l-0.3-0.5l-0.3-0.4
	l-0.4-0.5l-0.5-0.4l-0.4-0.3l-0.5-0.3l-0.6-0.3l-0.5-0.2l-0.6-0.1l-0.6-0.1l-0.5-0.1h-0.6l-0.6,0.1l-0.6,0.1l-0.6,0.2l-0.5,0.3
	l-0.5,0.3l-0.5,0.3l-0.4,0.4l-0.4,0.4l-0.4,0.5l-0.3,0.5l-0.3,0.5l-0.2,0.5l-0.2,0.6l-0.1,0.6v0.5v0.6v0.6l0.1,0.6l0.2,0.6l0.2,0.5
	l0.3,0.5l0.3,0.5l0.4,0.5l0.4,0.4l0.5,0.4l0.5,0.3l0.5,0.3l0.5,0.2l0.6,0.2l0.6,0.1l0.5,0.1h0.6l0.6-0.1l0.6-0.1l0.6-0.1l0.5-0.2
	l0.5-0.3l0.5-0.3l0.5-0.4l0.4-0.4l0.4-0.4l0.4-0.5l0.3-0.5l0.2-0.5l0.2-0.6l0.1-0.6l0.1-0.6v-0.5v-0.6l-0.1-0.6L265.4,314.9
	 M68.2,135.8l-0.4-1.1l-0.4-1l-0.4-1l-0.6-1l-0.5-1l-0.6-0.9l-0.7-0.9l-0.7-0.9l-0.7-0.8l-0.8-0.8l-0.8-0.7l-0.9-0.8l-0.9-0.6
	l-0.9-0.6l-1-0.6l-0.9-0.5l-1-0.5l-1.1-0.4l-1-0.3l-1.1-0.3l-1.1-0.3l-1.1-0.2l-1.1-0.1l-1.1-0.1h-1.1h-1.1l-1.1,0.1l-1.1,0.1
	l-1.1,0.2l-1.1,0.3l-1,0.3l-1.1,0.4l-1,0.4l-1,0.5l-1,0.5l-1,0.5l-0.9,0.7l-0.9,0.6l-0.8,0.7l-0.9,0.8l-0.7,0.8l-0.8,0.8L30,129
	l-0.6,0.9l-0.6,0.9l-0.6,1l-0.5,1l-0.4,1l-0.4,1l-0.4,1.1l-0.2,1L26,138l-0.2,1.1l-0.1,1.1l-0.1,1.1v1.2l0.1,1.1l0.1,1.1l0.1,1.1
	l0.3,1.1l0.2,1l0.3,1.1l0.4,1l0.5,1.1l0.4,1l0.6,0.9l0.6,1l0.6,0.9l0.7,0.9l0.7,0.8l0.7,0.8l0.8,0.8l0.9,0.7l0.9,0.7l0.9,0.6
	l0.9,0.6l1,0.6l1,0.5l1,0.4l1,0.4l1.1,0.3l1.1,0.3l1.1,0.2l1.1,0.2l1.1,0.1h1.1H48h1.1l1.1-0.1l1.1-0.2l1.1-0.2l1.1-0.3l1-0.4
	l1.1-0.3l1-0.5l1-0.5l0.9-0.5l1-0.6l0.9-0.7l0.9-0.7l0.8-0.7l0.8-0.8l0.7-0.8l0.8-0.8l0.6-0.9l0.7-0.9l0.5-1l0.6-1l0.4-1l0.5-1
	l0.3-1l0.4-1.1l0.2-1.1l0.2-1.1l0.2-1.1l0.1-1.1v-1.1v-1.1l-0.1-1.1l-0.1-1.1l-0.2-1.1l-0.2-1.1L68.2,135.8 M197.5,45.1l-0.2-0.5
	l-0.3-0.5l-0.3-0.5l-0.3-0.4l-0.4-0.4l-0.4-0.4l-0.5-0.3l-0.5-0.3l-0.5-0.2l-0.5-0.2l-0.6-0.1h-0.6h-0.5h-0.6l-0.5,0.2l-0.5,0.1
	l-0.6,0.3l-0.4,0.2l-0.5,0.4l-0.4,0.4l-0.4,0.4l-0.3,0.4l-0.3,0.5l-0.2,0.5l-0.2,0.6l-0.1,0.5l-0.1,0.6v0.5v0.6L187,48l0.1,0.6
	l0.2,0.5l0.3,0.5l0.3,0.4l0.4,0.5l0.4,0.4l0.4,0.3l0.5,0.3l0.5,0.2l0.6,0.2l0.5,0.2h0.6l0.5,0.1l0.6-0.1l0.5-0.1l0.6-0.1l0.5-0.2
	l0.5-0.3l0.5-0.3l0.4-0.3l0.4-0.4l0.3-0.5l0.4-0.4l0.2-0.5l0.2-0.6l0.2-0.5l0.1-0.6v-0.5v-0.6l-0.1-0.5L197.5,45.1 M104.2,96.9
	l-0.2-0.6l-0.3-0.6l-0.3-0.6l-0.3-0.5l-0.4-0.5l-0.5-0.4l-0.5-0.4l-0.5-0.4l-0.6-0.3l-0.6-0.2l-0.6-0.2L98.8,92h-0.6l-0.7-0.1
	L96.9,92h-0.6l-0.6,0.2l-0.6,0.2l-0.6,0.2l-0.6,0.3l-0.5,0.4l-0.5,0.4l-0.5,0.4L92,94.6l-0.3,0.6l-0.4,0.5l-0.2,0.6l-0.2,0.6
	l-0.2,0.6l-0.1,0.6v0.7v0.6l0.1,0.6l0.1,0.6l0.2,0.7l0.2,0.5l0.3,0.6l0.3,0.5l0.4,0.5l0.5,0.5l0.4,0.4l0.6,0.4l0.5,0.3l0.6,0.3
	l0.6,0.2l0.6,0.2l0.6,0.1l0.6,0.1h0.7l0.6-0.1l0.6-0.1l0.6-0.2l0.6-0.2l0.6-0.3l0.6-0.3l0.5-0.4l0.4-0.4l0.5-0.5l0.4-0.5l0.3-0.5
	l0.3-0.6l0.2-0.6l0.2-0.6l0.1-0.6l0.1-0.6v-0.7v-0.6l-0.1-0.6L104.2,96.9 M171.9,96.9l-0.2-0.6l-0.3-0.6l-0.3-0.6l-0.4-0.5l-0.4-0.5
	l-0.4-0.4l-0.5-0.4l-0.5-0.4l-0.6-0.3l-0.6-0.2l-0.6-0.2l-0.6-0.2h-0.6l-0.7-0.1l-0.6,0.1H164l-0.7,0.2l-0.6,0.2l-0.5,0.2l-0.6,0.3
	l-0.5,0.4l-0.5,0.4l-0.5,0.4l-0.4,0.5l-0.4,0.6l-0.3,0.5l-0.2,0.6l-0.3,0.6l-0.1,0.6l-0.1,0.6l-0.1,0.7l0.1,0.6v0.6l0.2,0.6l0.2,0.7
	l0.2,0.5l0.3,0.6l0.3,0.5l0.4,0.5l0.5,0.5l0.4,0.4l0.5,0.4l0.6,0.3l0.6,0.3l0.5,0.2l0.7,0.2l0.6,0.1l0.6,0.1h0.7l0.6-0.1l0.6-0.1
	l0.6-0.2l0.6-0.2l0.6-0.3l0.5-0.3l0.5-0.4l0.5-0.4l0.4-0.5l0.4-0.5l0.4-0.5l0.3-0.6l0.2-0.6l0.2-0.6l0.1-0.6l0.1-0.6v-0.7v-0.6
	l-0.1-0.6L171.9,96.9 M104.2,183.3l-0.2-0.6l-0.3-0.6l-0.3-0.6l-0.3-0.5l-0.4-0.5l-0.5-0.4l-0.5-0.4l-0.5-0.4l-0.6-0.3l-0.6-0.2
	l-0.6-0.2l-0.6-0.2h-0.6l-0.7-0.1l-0.6,0.1h-0.6l-0.6,0.2l-0.6,0.2l-0.6,0.2l-0.6,0.3l-0.5,0.4l-0.5,0.4l-0.5,0.4L92,181l-0.3,0.6
	l-0.4,0.5l-0.2,0.6l-0.2,0.6l-0.2,0.6l-0.1,0.6v0.7v0.6l0.1,0.6l0.1,0.6l0.2,0.7l0.2,0.5l0.3,0.6l0.3,0.5l0.4,0.5l0.5,0.5l0.4,0.4
	l0.6,0.4l0.5,0.3l0.6,0.3l0.6,0.2l0.6,0.2l0.6,0.1l0.6,0.1h0.7l0.6-0.1l0.6-0.1l0.6-0.2l0.6-0.2l0.6-0.3l0.6-0.3l0.5-0.4l0.4-0.4
	l0.5-0.5l0.4-0.5l0.3-0.5l0.3-0.6l0.2-0.6l0.2-0.6l0.1-0.6l0.1-0.6v-0.7v-0.6l-0.1-0.6L104.2,183.3 M171.9,183.3l-0.2-0.6l-0.3-0.6
	l-0.3-0.6l-0.4-0.5l-0.4-0.5l-0.4-0.4l-0.5-0.4l-0.5-0.4l-0.6-0.3l-0.6-0.2l-0.6-0.2l-0.6-0.2h-0.6l-0.7-0.1l-0.6,0.1H164l-0.7,0.2
	l-0.6,0.2l-0.5,0.2l-0.6,0.3l-0.5,0.4l-0.5,0.4l-0.5,0.4l-0.4,0.5l-0.4,0.6l-0.3,0.5l-0.2,0.6l-0.3,0.6l-0.1,0.6l-0.1,0.6l-0.1,0.7
	l0.1,0.6v0.6l0.2,0.6l0.2,0.7l0.2,0.5l0.3,0.6l0.3,0.5l0.4,0.5l0.5,0.5l0.4,0.4l0.5,0.4l0.6,0.3l0.6,0.3l0.5,0.2l0.7,0.2l0.6,0.1
	l0.6,0.1h0.7l0.6-0.1l0.6-0.1l0.6-0.2l0.6-0.2l0.6-0.3l0.5-0.3l0.5-0.4l0.5-0.4l0.4-0.5l0.4-0.5l0.4-0.5l0.3-0.6l0.2-0.6l0.2-0.6
	l0.1-0.6l0.1-0.6v-0.7v-0.6l-0.1-0.6L171.9,183.3 M197.5,235.9l-0.2-0.5l-0.3-0.5l-0.3-0.5l-0.3-0.4l-0.4-0.4l-0.4-0.4l-0.5-0.3
	l-0.5-0.3l-0.5-0.2l-0.5-0.2l-0.6-0.1h-0.6h-0.5h-0.6l-0.5,0.2l-0.5,0.1l-0.6,0.3l-0.4,0.2l-0.5,0.4l-0.4,0.4l-0.4,0.4l-0.3,0.4
	l-0.3,0.5l-0.2,0.5l-0.2,0.6l-0.1,0.5l-0.1,0.6v0.5v0.6l0.2,0.5l0.1,0.6l0.2,0.5l0.3,0.5l0.3,0.4l0.4,0.5l0.4,0.4l0.4,0.3l0.5,0.3
	l0.5,0.2l0.6,0.2l0.5,0.2h0.6l0.5,0.1l0.6-0.1l0.5-0.1l0.6-0.1l0.5-0.2l0.5-0.3l0.5-0.3l0.4-0.3l0.4-0.4l0.3-0.5l0.4-0.4l0.2-0.5
	l0.2-0.6l0.2-0.5l0.1-0.6v-0.5V237l-0.1-0.5L197.5,235.9 M424.3,45.1l-0.2-0.5l-0.3-0.5l-0.3-0.5l-0.3-0.4l-0.4-0.4l-0.4-0.4
	l-0.5-0.3l-0.5-0.3l-0.5-0.2l-0.5-0.2l-0.6-0.1h-0.6h-0.5h-0.6l-0.5,0.2l-0.5,0.1l-0.6,0.3l-0.4,0.2l-0.5,0.4l-0.4,0.4l-0.4,0.4
	l-0.3,0.4l-0.3,0.5l-0.2,0.5l-0.2,0.6l-0.1,0.5l-0.1,0.6v0.5v0.6l0.2,0.5l0.1,0.6l0.2,0.5l0.3,0.5l0.3,0.4l0.4,0.5l0.4,0.4l0.4,0.3
	l0.5,0.3l0.5,0.2l0.6,0.2l0.5,0.2h0.6l0.5,0.1l0.6-0.1l0.5-0.1l0.6-0.1l0.5-0.2l0.5-0.3l0.5-0.3l0.4-0.3l0.4-0.4l0.3-0.5l0.4-0.4
	L424,49l0.2-0.6l0.2-0.5l0.1-0.6v-0.5v-0.6l-0.1-0.5L424.3,45.1 M15.6,244.7l0.1,0.9v0.9l0.2,0.9l0.2,0.9l0.2,0.9l0.4,0.9l0.3,0.8
	l0.4,0.9l0.5,0.7l0.5,0.8L19,254l0.6,0.7l0.6,0.7l0.7,0.6l0.8,0.5l0.7,0.6l0.8,0.4l0.8,0.4l0.9,0.4l0.8,0.3l0.9,0.3l0.9,0.2l0.9,0.1
	l0.9,0.1h0.9 M30.2,24.9h-0.9L28.4,25l-0.9,0.2l-0.9,0.2l-0.9,0.2l-0.8,0.3L24,26.3l-0.8,0.4l-0.8,0.5l-0.7,0.5l-0.8,0.5l-0.7,0.7
	l-0.6,0.6L19,30.2l-0.6,0.7l-0.5,0.8l-0.5,0.8L17,33.3l-0.3,0.8L16.3,35l-0.2,0.9l-0.2,0.9l-0.2,0.9v0.9l-0.1,0.9 M440.9,28.7
	l-0.1-0.5l-0.1-0.5l-0.1-0.4l-0.3-0.5l-0.2-0.4l-0.4-0.4l-0.3-0.3l-0.4-0.3l-0.5-0.2L438,25l-0.5-0.1H437 M437,259.3h0.5l0.5-0.1
	l0.5-0.2l0.5-0.2l0.4-0.3l0.3-0.3l0.4-0.4l0.2-0.4l0.3-0.4l0.1-0.5l0.1-0.5l0.1-0.5 M424.3,235.9l-0.2-0.5l-0.3-0.5l-0.3-0.5
	l-0.3-0.4l-0.4-0.4l-0.4-0.4l-0.5-0.3l-0.5-0.3l-0.5-0.2l-0.5-0.2l-0.6-0.1h-0.6h-0.5h-0.6l-0.5,0.2l-0.5,0.1l-0.6,0.3l-0.4,0.2
	l-0.5,0.4l-0.4,0.4l-0.4,0.4l-0.3,0.4l-0.3,0.5l-0.2,0.5l-0.2,0.6l-0.1,0.5l-0.1,0.6v0.5v0.6l0.2,0.5l0.1,0.6l0.2,0.5l0.3,0.5
	l0.3,0.4l0.4,0.5l0.4,0.4l0.4,0.3l0.5,0.3l0.5,0.2l0.6,0.2l0.5,0.2h0.6l0.5,0.1l0.6-0.1l0.5-0.1l0.6-0.1l0.5-0.2l0.5-0.3l0.5-0.3
	l0.4-0.3l0.4-0.4l0.3-0.5l0.4-0.4l0.2-0.5l0.2-0.6l0.2-0.5l0.1-0.6v-0.5V237l-0.1-0.5L424.3,235.9"/>
<path class="st1" d="M234.8,652.7H29.6 M249.4,396.9v241.2 M29.6,382.3h205.2 M15,638.1V396.9 M181,272.3H29.8 M15.2,286.9v65.9
	 M29.8,367.4H181 M195.7,352.8v-65.9 M162.8,296.1H48.1 M48.1,296.1V322 M48.1,322H28.3 M28.3,326.6h19.8 M28.3,322v4.6 M48.1,326.6
	v26 M48.1,352.6h114.7 M162.8,352.6v-26 M162.8,326.6h19.8 M182.6,322h-19.8 M162.8,322v-25.9 M182.6,326.6V322 M152.5,288.5h28.3
	 M152.5,279.9v8.6 M180.8,279.9h-28.3 M180.8,288.5v-8.6 M94.9,288.5h28.3 M123.2,288.5v-8.6 M123.2,279.9H94.9 M94.9,279.9v8.6
	 M37.3,288.5h28.3 M65.6,288.5v-8.6 M65.6,279.9H37.3 M37.3,279.9v8.6 M406,278.7H254.8 M240.2,293.3v65.9 M254.8,373.8H406
	 M420.6,359.2v-65.9 M387.8,302.6H273 M273,302.6v25.9 M273,328.5h-19.8 M253.2,333.1H273 M253.2,328.5v4.6 M273,333.1V359 M273,359
	h114.8 M387.8,359v-25.9 M387.8,333.1h19.8 M407.6,328.5h-19.8 M387.8,328.5v-25.9 M407.6,333.1v-4.6 M377.4,294.9h28.4
	 M377.4,286.4v8.5 M405.8,286.4h-28.4 M405.8,294.9v-8.5 M319.8,294.9h28.4 M348.2,294.9v-8.5 M348.2,286.4h-28.4 M319.8,286.4v8.5
	 M262.2,294.9h28.4 M290.6,294.9v-8.5 M290.6,286.4h-28.4 M262.2,286.4v8.5 M426.5,259.3H437 M426.5,268.3v-9 M397.2,268.3h29.3
	 M397.2,259.3v9 M368.9,259.3h28.3 M368.9,268.3v-9 M339.6,268.3h29.3 M339.6,259.3v9 M311.3,259.3h28.3 M311.3,268.3v-9 M282,268.3
	h29.3 M282,259.3v9 M30.2,259.3H282 M15.6,39.5v205.2 M282,24.9H30.2 M282,15.9v9 M311.3,15.9H282 M311.3,24.9v-9 M339.6,24.9h-28.3
	 M339.6,15.9v9 M368.9,15.9h-29.3 M368.9,24.9v-9 M397.2,24.9h-28.3 M397.2,15.9v9 M426.5,15.9h-29.3 M426.5,24.9v-9 M437,24.9
	h-10.5 M440.9,255.5V28.7"/>
</svg>
